<mxfile host="app.diagrams.net" modified="2020-09-25T06:55:32.750Z" agent="5.0 (Macintosh)" etag="t8f3ZQYivUjjDiDXD7iQ" version="13.7.5" type="github">
  <diagram id="L3uyUHzoWwZ9X1qXC1sp" name="Page-1">
    <mxGraphModel dx="883" dy="533" grid="1" gridSize="10" guides="1" tooltips="1" connect="1" arrows="1" fold="1" page="1" pageScale="1" pageWidth="850" pageHeight="1100" math="0" shadow="0">
      <root>
        <mxCell id="0" />
        <mxCell id="1" parent="0" />
        <mxCell id="WErpTyXh6auIZGr04Bot-1" value="&lt;div&gt;eight of wands&lt;/div&gt;" style="whiteSpace=wrap;html=1;" vertex="1" parent="1">
          <mxGeometry x="380" y="120" width="120" height="60" as="geometry" />
        </mxCell>
      </root>
    </mxGraphModel>
  </diagram>
</mxfile>
